<?xml version="1.0" encoding="iso-8859-1"?>
<!-- Generator: Adobe Illustrator 19.0.0, SVG Export Plug-In . SVG Version: 6.00 Build 0)  -->
<svg version="1.1" id="Layer_1" xmlns="http://www.w3.org/2000/svg" xmlns:xlink="http://www.w3.org/1999/xlink" x="0px" y="0px"
	 viewBox="0 0 508 508" style="enable-background:new 0 0 508 508;" xml:space="preserve">
<g>
	<g>
		<path d="M379.6,334.7c-16.9-10-34.8-17.9-53.2-23.6c-6.4-2-13.3,0.8-16.5,6.7L254,419.4l-55.8-101.6c-3.2-5.9-10.1-8.7-16.5-6.7
			c-18.6,5.7-36.6,13.7-53.4,23.6C96,354,75.8,389.9,75.8,428.5v65.4c0,7.8,6.3,14.1,14.1,14.1H418c7.8,0,14.1-6.3,14.1-14.1v-65.4
			C432.1,389.9,412,354,379.6,334.7z M404,479.8h-0.1H104.1v-20.3h33.2c7.8,0,14.1-6.3,14.1-14.1c0-7.8-6.3-14.1-14.1-14.1h-33.2
			c0,0-1-1,1.8-19.2h59.6c7.8,0,14.1-6.3,14.1-14.1c0-7.8-6.3-14.1-14.1-14.1h-48.1c6.5-10,15-18.6,25.4-24.8
			c11.6-6.9,23.8-12.7,36.4-17.3l62.5,113.8c2.5,4.5,7.2,7.3,12.4,7.3c5.1,0,9.9-2.8,12.4-7.3L329,341.8
			c12.5,4.6,24.7,10.4,36.3,17.3c23.9,14.2,38.7,40.9,38.7,69.6V479.8z"/>
	</g>
</g>
<g>
	<g>
		<path d="M254,104c-54.3,0-98.4,44.2-98.4,98.4c0,54.2,44.1,98.5,98.4,98.5s98.4-44.2,98.4-98.4C352.4,148.3,308.3,104,254,104z
			 M254,272.6c-38.7,0-70.2-31.5-70.2-70.2c0-38.7,31.5-70.2,70.2-70.2s70.2,31.5,70.2,70.2C324.2,241.1,292.7,272.6,254,272.6z"/>
	</g>
</g>
<g>
	<g>
		<path d="M254,0c-7.8,0-14.1,6.3-14.1,14.1v36c0,7.8,6.3,14.1,14.1,14.1s14.1-6.3,14.1-14.1v-36C268.1,6.3,261.8,0,254,0z"/>
	</g>
</g>
<g>
	<g>
		<path d="M156.3,84.7l-25.5-25.5c-5.5-5.5-14.4-5.5-20,0c-5.5,5.5-5.5,14.4,0,20l25.5,25.5c4.7,4.4,14.6,5,20,0
			C162,99.4,161.8,90.3,156.3,84.7z"/>
	</g>
</g>
<g>
	<g>
		<path d="M101.7,188.3h-36c-7.8,0-14.1,6.3-14.1,14.1c0,7.8,6.3,14.1,14.1,14.1h36c7.8,0,14.1-6.3,14.1-14.1
			C115.8,194.6,109.5,188.3,101.7,188.3z"/>
	</g>
</g>
<g>
	<g>
		<path d="M442.3,188.3h-36c-7.8,0-14.1,6.3-14.1,14.1c0,7.8,6.3,14.1,14.1,14.1h36c7.8,0,14.1-6.3,14.1-14.1
			C456.4,194.6,450.1,188.3,442.3,188.3z"/>
	</g>
</g>
<g>
	<g>
		<path d="M397.2,59.2c-5.5-5.5-14.4-5.5-20,0l-25.5,25.5c-5.5,5.5-5.7,14.6,0,20c4.3,4,15.3,4.2,20,0l25.5-25.5
			C402.7,73.7,402.7,64.8,397.2,59.2z"/>
	</g>
</g>
<g>
</g>
<g>
</g>
<g>
</g>
<g>
</g>
<g>
</g>
<g>
</g>
<g>
</g>
<g>
</g>
<g>
</g>
<g>
</g>
<g>
</g>
<g>
</g>
<g>
</g>
<g>
</g>
<g>
</g>
</svg>
